<svg xmlns="http://www.w3.org/2000/svg" width="2400" height="1350" viewBox="0 0 2400 1350" role="img" aria-label="Capitol building with red digital data stream">
  <defs>
    <linearGradient id="g0" x1="0" y1="0" x2="1" y2="1">
      <stop offset="0" stop-color="#05070c"/>
      <stop offset="1" stop-color="#0b1020"/>
    </linearGradient>
    <radialGradient id="goldGlow" cx="30%" cy="24%" r="70%">
      <stop offset="0" stop-color="rgba(212,175,55,.26)"/>
      <stop offset="0.55" stop-color="rgba(212,175,55,.08)"/>
      <stop offset="1" stop-color="rgba(212,175,55,0)"/>
    </radialGradient>
    <radialGradient id="blueGlow" cx="80%" cy="18%" r="70%">
      <stop offset="0" stop-color="rgba(255,255,255,.08)"/>
      <stop offset="1" stop-color="rgba(120,180,255,0)"/>
    </radialGradient>
    <filter id="blur" x="-20%" y="-20%" width="140%" height="140%">
      <feGaussianBlur stdDeviation="8"/>
    </filter>
  </defs>

  <rect width="2400" height="1350" fill="url(#g0)"/>
  <rect width="2400" height="1350" fill="url(#goldGlow)"/>
  <rect width="2400" height="1350" fill="url(#blueGlow)"/>

  <g opacity="0.8"><path d="M 561.5 990.4 Q 498.4 537.0 756.5 332.1" stroke="rgba(243,210,122,0.065)" stroke-width="1.60" fill="none"/><path d="M -26.8 182.0 Q 137.8 136.6 327.9 282.3" stroke="rgba(243,210,122,0.075)" stroke-width="1.61" fill="none"/><path d="M 2180.7 728.8 Q 974.9 994.7 306.6 1020.2" stroke="rgba(243,210,122,0.082)" stroke-width="1.35" fill="none"/><path d="M 1840.8 1435.7 Q 1779.9 521.2 1105.5 26.3" stroke="rgba(243,210,122,0.111)" stroke-width="1.05" fill="none"/><path d="M 68.1 1098.8 Q 261.9 742.7 -28.6 786.9" stroke="rgba(243,210,122,0.130)" stroke-width="1.32" fill="none"/><path d="M 1260.6 687.8 Q 1117.9 840.8 1371.9 816.9" stroke="rgba(243,210,122,0.108)" stroke-width="1.37" fill="none"/><path d="M 1831.8 1076.4 Q 1313.3 1173.3 1232.0 1337.5" stroke="rgba(243,210,122,0.117)" stroke-width="1.02" fill="none"/><path d="M 2128.0 1083.7 Q 1762.7 1243.7 1662.4 1343.8" stroke="rgba(243,210,122,0.082)" stroke-width="1.12" fill="none"/><path d="M 694.9 1140.9 Q 747.6 1009.0 328.2 676.0" stroke="rgba(243,210,122,0.117)" stroke-width="1.59" fill="none"/><path d="M 1502.0 1411.8 Q 1078.6 1126.5 514.0 733.5" stroke="rgba(243,210,122,0.122)" stroke-width="1.49" fill="none"/><path d="M 1078.8 902.0 Q 287.1 317.7 235.8 98.4" stroke="rgba(243,210,122,0.115)" stroke-width="1.94" fill="none"/><path d="M 2265.5 134.4 Q 1532.2 317.4 1414.5 195.4" stroke="rgba(243,210,122,0.101)" stroke-width="2.04" fill="none"/><path d="M 1188.4 17.0 Q 482.5 635.2 94.8 1173.2" stroke="rgba(243,210,122,0.138)" stroke-width="1.63" fill="none"/><path d="M 1992.2 1397.9 Q 2289.4 1128.2 2226.9 501.6" stroke="rgba(243,210,122,0.081)" stroke-width="1.46" fill="none"/></g>
  <g><circle cx="1565.2" cy="543.0" r="2.9" fill="rgba(212,175,55,0.108)"/><circle cx="2257.2" cy="906.1" r="3.0" fill="rgba(212,175,55,0.098)"/><circle cx="2162.3" cy="1140.8" r="3.7" fill="rgba(212,175,55,0.096)"/><circle cx="255.5" cy="792.2" r="4.9" fill="rgba(212,175,55,0.075)"/><circle cx="911.4" cy="1022.1" r="3.7" fill="rgba(212,175,55,0.125)"/><circle cx="1894.1" cy="854.9" r="5.6" fill="rgba(212,175,55,0.137)"/><circle cx="2263.3" cy="541.7" r="3.0" fill="rgba(212,175,55,0.050)"/><circle cx="1166.3" cy="1145.2" r="5.5" fill="rgba(212,175,55,0.125)"/><circle cx="1883.4" cy="1267.5" r="2.5" fill="rgba(212,175,55,0.097)"/><circle cx="2235.7" cy="822.3" r="4.1" fill="rgba(212,175,55,0.065)"/><circle cx="48.1" cy="221.5" r="5.8" fill="rgba(212,175,55,0.129)"/><circle cx="388.0" cy="1208.6" r="3.9" fill="rgba(212,175,55,0.098)"/><circle cx="966.5" cy="667.5" r="2.9" fill="rgba(212,175,55,0.115)"/><circle cx="2131.2" cy="463.7" r="3.3" fill="rgba(212,175,55,0.129)"/><circle cx="815.1" cy="820.0" r="3.7" fill="rgba(212,175,55,0.089)"/><circle cx="828.8" cy="1002.2" r="2.6" fill="rgba(212,175,55,0.100)"/><circle cx="1213.0" cy="591.9" r="5.8" fill="rgba(212,175,55,0.064)"/><circle cx="960.5" cy="1126.6" r="2.0" fill="rgba(212,175,55,0.060)"/><circle cx="416.0" cy="1144.0" r="4.9" fill="rgba(212,175,55,0.139)"/><circle cx="1065.7" cy="384.8" r="5.3" fill="rgba(212,175,55,0.058)"/><circle cx="1865.2" cy="4.7" r="3.0" fill="rgba(212,175,55,0.136)"/><circle cx="1991.5" cy="758.1" r="4.4" fill="rgba(212,175,55,0.103)"/><circle cx="999.1" cy="453.2" r="4.2" fill="rgba(212,175,55,0.123)"/><circle cx="1705.2" cy="382.4" r="3.2" fill="rgba(212,175,55,0.120)"/><circle cx="667.6" cy="1006.8" r="3.9" fill="rgba(212,175,55,0.102)"/><circle cx="2139.1" cy="15.7" r="4.4" fill="rgba(212,175,55,0.128)"/><circle cx="228.3" cy="179.9" r="2.4" fill="rgba(212,175,55,0.071)"/><circle cx="1737.2" cy="403.4" r="2.1" fill="rgba(212,175,55,0.102)"/><circle cx="2064.8" cy="400.6" r="2.1" fill="rgba(212,175,55,0.053)"/><circle cx="1635.4" cy="977.6" r="2.3" fill="rgba(212,175,55,0.059)"/><circle cx="917.0" cy="1013.0" r="2.8" fill="rgba(212,175,55,0.125)"/><circle cx="327.4" cy="445.1" r="2.5" fill="rgba(212,175,55,0.068)"/><circle cx="1133.0" cy="1107.6" r="5.3" fill="rgba(212,175,55,0.088)"/><circle cx="2295.2" cy="1091.8" r="5.9" fill="rgba(212,175,55,0.139)"/><circle cx="1027.5" cy="132.9" r="2.3" fill="rgba(212,175,55,0.069)"/><circle cx="948.9" cy="15.0" r="5.6" fill="rgba(212,175,55,0.111)"/><circle cx="1384.4" cy="855.3" r="3.1" fill="rgba(212,175,55,0.062)"/><circle cx="207.1" cy="145.6" r="2.3" fill="rgba(212,175,55,0.133)"/></g>

  <g filter="url(#blur)" opacity="0.9">
    <circle cx="1752.0" cy="621.0" r="210" fill="rgba(255,255,255,.04)"/>
  </g>

  <g><circle cx="1752.0" cy="621.0" r="160" fill="none" stroke="rgba(212,175,55,0.180)" stroke-width="1.2"/><circle cx="1752.0" cy="621.0" r="215" fill="none" stroke="rgba(212,175,55,0.150)" stroke-width="1.2"/><circle cx="1752.0" cy="621.0" r="270" fill="none" stroke="rgba(212,175,55,0.120)" stroke-width="1.2"/><circle cx="1752.0" cy="621.0" r="325" fill="none" stroke="rgba(212,175,55,0.090)" stroke-width="1.2"/></g>

  <g>
    <rect x="1562.0" y="555.0" width="380" height="132" rx="26" fill="rgba(255,255,255,.05)" stroke="rgba(255,255,255,.10)"/>
    <text x="1752.0" y="613.0" text-anchor="middle" font-family="ui-sans-serif,system-ui" font-size="50" fill="rgba(245,247,255,.92)" letter-spacing="2">W3</text>
    <text x="1752.0" y="655.0" text-anchor="middle" font-family="ui-sans-serif,system-ui" font-size="22" fill="rgba(245,247,255,.60)" letter-spacing="1">w3.republican</text>
  </g>

  <g opacity="0.9">
    <circle cx="432.0" cy="1053.0" r="280" fill="rgba(212,175,55,.06)"/>
    <circle cx="432.0" cy="1053.0" r="279" fill="none" stroke="rgba(255,255,255,.06)"/>
  </g>
</svg>